<svg width="37" height="36" viewBox="0 0 37 36" fill="none" xmlns="http://www.w3.org/2000/svg">
<path fill-rule="evenodd" clip-rule="evenodd" d="M32 18C32 25.4558 25.9558 31.5 18.5 31.5C11.0442 31.5 5 25.4558 5 18C5 10.5442 11.0442 4.5 18.5 4.5C25.9558 4.5 32 10.5442 32 18ZM18.5 26.5C17.9477 26.5 17.5 26.0523 17.5 25.5V19H11C10.4477 19 10 18.5523 10 18C10 17.4477 10.4477 17 11 17H17.5V10.5C17.5 9.94772 17.9477 9.5 18.5 9.5C19.0523 9.5 19.5 9.94772 19.5 10.5V17H26C26.5523 17 27 17.4477 27 18C27 18.5523 26.5523 19 26 19H19.5V25.5C19.5 26.0523 19.0523 26.5 18.5 26.5Z" fill="#FFD600"/>
</svg>
