<svg width="25" height="30" viewBox="0 0 25 30" fill="none" xmlns="http://www.w3.org/2000/svg">
<path d="M21.5 6H18.5C18.5 2.685 15.815 0 12.5 0C9.185 0 6.5 2.685 6.5 6H3.5C1.85 6 0.5 7.35 0.5 9V27C0.5 28.65 1.85 30 3.5 30H21.5C23.15 30 24.5 28.65 24.5 27V9C24.5 7.35 23.15 6 21.5 6ZM12.5 3C14.15 3 15.5 4.35 15.5 6H9.5C9.5 4.35 10.85 3 12.5 3ZM21.5 27H3.5V9H6.5V12C6.5 12.825 7.175 13.5 8 13.5C8.825 13.5 9.5 12.825 9.5 12V9H15.5V12C15.5 12.825 16.175 13.5 17 13.5C17.825 13.5 18.5 12.825 18.5 12V9H21.5V27Z" fill="#FFD600"/>
</svg>
