<svg width="36" height="36" viewBox="0 0 36 36" fill="none" xmlns="http://www.w3.org/2000/svg">
<path fill-rule="evenodd" clip-rule="evenodd" d="M31.5 9H4.5V13.5C5.43188 13.5 5.89782 13.5 6.26537 13.6522C6.75542 13.8552 7.14477 14.2446 7.34776 14.7346C7.5 15.1022 7.5 15.5681 7.5 16.5V25.5C7.5 28.3284 7.5 29.7426 8.37868 30.6213C9.25736 31.5 10.6716 31.5 13.5 31.5H22.5C25.3284 31.5 26.7426 31.5 27.6213 30.6213C28.5 29.7426 28.5 28.3284 28.5 25.5V16.5C28.5 15.5681 28.5 15.1022 28.6522 14.7346C28.8552 14.2446 29.2446 13.8552 29.7346 13.6522C30.1022 13.5 30.5681 13.5 31.5 13.5V9ZM15.25 16.5C15.25 15.9477 14.8023 15.5 14.25 15.5C13.6977 15.5 13.25 15.9477 13.25 16.5V24C13.25 24.5523 13.6977 25 14.25 25C14.8023 25 15.25 24.5523 15.25 24V16.5ZM22.75 16.5C22.75 15.9477 22.3023 15.5 21.75 15.5C21.1977 15.5 20.75 15.9477 20.75 16.5V24C20.75 24.5523 21.1977 25 21.75 25C22.3023 25 22.75 24.5523 22.75 24V16.5Z" fill="white"/>
<path d="M15.1022 5.05589C15.2731 4.89641 15.6498 4.75549 16.1737 4.65499C16.6976 4.55448 17.3396 4.5 18 4.5C18.6604 4.5 19.3024 4.55448 19.8263 4.65498C20.3502 4.75549 20.7269 4.89641 20.8978 5.05589" stroke="white" stroke-width="2" stroke-linecap="round"/>
</svg>
