<svg width="31" height="30" viewBox="0 0 31 30" fill="none" xmlns="http://www.w3.org/2000/svg">
<path d="M15.5 0C7.22 0 0.5 6.72 0.5 15C0.5 23.28 7.22 30 15.5 30C23.78 30 30.5 23.28 30.5 15C30.5 6.72 23.78 0 15.5 0ZM8.105 24.42C8.75 23.07 12.68 21.75 15.5 21.75C18.32 21.75 22.265 23.07 22.895 24.42C20.855 26.04 18.29 27 15.5 27C12.71 27 10.145 26.04 8.105 24.42ZM25.04 22.245C22.895 19.635 17.69 18.75 15.5 18.75C13.31 18.75 8.105 19.635 5.96 22.245C4.43 20.235 3.5 17.73 3.5 15C3.5 8.385 8.885 3 15.5 3C22.115 3 27.5 8.385 27.5 15C27.5 17.73 26.57 20.235 25.04 22.245ZM15.5 6C12.59 6 10.25 8.34 10.25 11.25C10.25 14.16 12.59 16.5 15.5 16.5C18.41 16.5 20.75 14.16 20.75 11.25C20.75 8.34 18.41 6 15.5 6ZM15.5 13.5C14.255 13.5 13.25 12.495 13.25 11.25C13.25 10.005 14.255 9 15.5 9C16.745 9 17.75 10.005 17.75 11.25C17.75 12.495 16.745 13.5 15.5 13.5Z" fill="#FFD600"/>
</svg>
