<svg width="36" height="36" viewBox="0 0 36 36" fill="none" xmlns="http://www.w3.org/2000/svg">
<path d="M7.5 12L7.5 24" stroke="#17530D" stroke-width="2" stroke-linejoin="round"/>
<path d="M7.70801 3.31202L12.6708 10.7562C13.0253 11.2879 12.6441 12 12.0052 12L2.99481 12C2.35586 12 1.97474 11.2879 2.32917 10.7562L7.29199 3.31202C7.39094 3.16359 7.60906 3.16359 7.70801 3.31202Z" fill="#17530D"/>
<path d="M7.70801 32.688L12.6708 25.2438C13.0253 24.7121 12.6441 24 12.0052 24L2.99481 24C2.35586 24 1.97474 24.7121 2.32917 25.2438L7.29199 32.688C7.39094 32.8364 7.60906 32.8364 7.70801 32.688Z" fill="#17530D"/>
<path d="M16.5 10.5H28.5" stroke="#17530D" stroke-width="2" stroke-linecap="round"/>
<path d="M16.5 18H28.5" stroke="#17530D" stroke-width="2" stroke-linecap="round"/>
<path d="M16.5 25.5H28.5" stroke="#17530D" stroke-width="2" stroke-linecap="round"/>
</svg>
