<?xml version="1.0" encoding="UTF-8"?><svg id="Layer_1" xmlns="http://www.w3.org/2000/svg" viewBox="0 0 460.51 201.21"><defs><style>.cls-1{fill:#fb0;}</style></defs><path class="cls-1" d="m420.06,0H40.44c0,22.34-18.11,40.44-40.44,40.44v120.47c1.07-.09,2.16-.14,3.25-.14,22.34,0,40.44,18.11,40.44,40.44h379.62c0-21.24,16.38-38.64,37.19-40.3V40.44c-22.34,0-40.44-18.11-40.44-40.44Z"/><path d="m146.91,98.94c-2.59,4.67-6.56,8.43-11.92,11.29-5.36,2.86-12.01,4.29-19.95,4.29h-14.69v34.92h-23.69V52.18h38.38c7.76,0,14.32,1.34,19.67,4.02,5.36,2.68,9.37,6.37,12.05,11.08,2.68,4.71,4.02,10.11,4.02,16.21,0,5.64-1.29,10.79-3.88,15.45Zm-23.55-6.44c2.22-2.12,3.33-5.13,3.33-9.01s-1.11-6.88-3.33-9.01c-2.22-2.12-5.59-3.19-10.11-3.19h-12.89v24.38h12.89c4.52,0,7.9-1.06,10.11-3.19Z"/><path d="m237.53,149.45l-9.01-8.73c-8.96,6.84-19.67,10.25-32.14,10.25-7.48,0-13.99-1.23-19.54-3.67-5.54-2.45-9.82-5.91-12.82-10.39-3-4.48-4.5-9.72-4.5-15.73s1.64-11.61,4.92-16.56c3.28-4.94,8.2-8.98,14.76-12.12-2.4-2.96-4.11-5.79-5.13-8.52-1.02-2.72-1.52-5.7-1.52-8.94,0-4.62,1.2-8.82,3.6-12.61,2.4-3.79,5.89-6.77,10.46-8.94,4.57-2.17,10-3.26,16.28-3.26s11.78,1.16,16.21,3.46c4.43,2.31,7.76,5.4,9.98,9.28,2.22,3.88,3.23,8.13,3.05,12.75h-22.31c.09-2.49-.53-4.41-1.87-5.75-1.34-1.34-3.12-2.01-5.33-2.01s-4.07.65-5.54,1.94c-1.48,1.29-2.22,2.96-2.22,4.99s.62,3.97,1.87,6.1c1.25,2.13,3.21,4.57,5.89,7.34l23.69,23.14c.18-.46.44-1.02.76-1.66.32-.64.67-1.39,1.04-2.22l5.13-8.73h23.69l-6.65,12.05c-2.49,5.45-5.36,10.62-8.59,15.52l23.42,23h-27.57Zm-23.55-22.86l-21.61-20.92c-6.65,3.42-9.98,8.04-9.98,13.86,0,3.51,1.36,6.44,4.09,8.8,2.72,2.36,6.4,3.53,11.02,3.53,6.19,0,11.68-1.75,16.49-5.26Z"/><path d="m383.84,52.18v97.27h-23.69v-58.33l-21.75,58.33h-19.12l-21.89-58.47v58.47h-23.69V52.18h27.99l27.29,67.34,27.02-67.34h27.85Z"/></svg>