<?xml version="1.0" encoding="utf-8"?>
<!-- Generator: Adobe Illustrator 27.3.0, SVG Export Plug-In . SVG Version: 6.00 Build 0)  -->
<svg version="1.1" id="Layer_1" xmlns="http://www.w3.org/2000/svg" xmlns:xlink="http://www.w3.org/1999/xlink" x="0px" y="0px"
	 viewBox="0 0 500 500" style="enable-background:new 0 0 500 500;" xml:space="preserve">
<style type="text/css">
	.st0{fill:#FFBB00;}
</style>
<path class="st0" d="M439.81,149.39H60.19c0,22.34-18.11,40.44-40.44,40.44V310.3c1.07-0.09,2.16-0.14,3.25-0.14
	c22.34,0,40.44,18.11,40.44,40.44h379.62c0-21.24,16.38-38.64,37.19-40.3V189.84C457.92,189.84,439.81,171.73,439.81,149.39z"/>
<g>
	<path d="M166.66,248.34c-2.59,4.67-6.56,8.43-11.92,11.29c-5.36,2.86-12.01,4.29-19.95,4.29h-14.69v34.92H96.41v-97.27h38.38
		c7.76,0,14.32,1.34,19.67,4.02c5.36,2.68,9.37,6.37,12.05,11.08c2.68,4.71,4.02,10.11,4.02,16.21
		C170.54,238.52,169.25,243.67,166.66,248.34z M143.11,241.89c2.22-2.12,3.33-5.13,3.33-9.01s-1.11-6.88-3.33-9.01
		c-2.22-2.12-5.59-3.19-10.11-3.19h-12.89v24.38h12.89C137.52,245.08,140.89,244.02,143.11,241.89z"/>
	<path d="M257.27,298.84l-9.01-8.73c-8.96,6.84-19.67,10.25-32.14,10.25c-7.48,0-13.99-1.23-19.54-3.67
		c-5.54-2.45-9.82-5.91-12.82-10.39c-3-4.48-4.5-9.72-4.5-15.73c0-6.1,1.64-11.61,4.92-16.56c3.28-4.94,8.2-8.98,14.76-12.12
		c-2.4-2.96-4.11-5.79-5.13-8.52c-1.02-2.72-1.52-5.7-1.52-8.94c0-4.62,1.2-8.82,3.6-12.61c2.4-3.79,5.89-6.77,10.46-8.94
		c4.57-2.17,10-3.26,16.28-3.26c6.37,0,11.78,1.16,16.21,3.46c4.43,2.31,7.76,5.4,9.98,9.28c2.22,3.88,3.23,8.13,3.05,12.75h-22.31
		c0.09-2.49-0.53-4.41-1.87-5.75c-1.34-1.34-3.12-2.01-5.33-2.01s-4.07,0.65-5.54,1.94c-1.48,1.29-2.22,2.96-2.22,4.99
		c0,1.94,0.62,3.97,1.87,6.1c1.25,2.13,3.21,4.57,5.89,7.34l23.69,23.14c0.18-0.46,0.44-1.02,0.76-1.66
		c0.32-0.64,0.67-1.39,1.04-2.22l5.13-8.73h23.69l-6.65,12.05c-2.49,5.45-5.36,10.62-8.59,15.52l23.42,23H257.27z M233.72,275.98
		l-21.61-20.92c-6.65,3.42-9.98,8.04-9.98,13.86c0,3.51,1.36,6.44,4.09,8.8c2.72,2.36,6.4,3.53,11.02,3.53
		C223.42,281.24,228.92,279.49,233.72,275.98z"/>
	<path d="M403.59,201.57v97.27H379.9v-58.33l-21.75,58.33h-19.12l-21.89-58.47v58.47h-23.69v-97.27h27.99l27.29,67.34l27.02-67.34
		H403.59z"/>
</g>
</svg>
